<svg width="30" height="26" viewBox="0 0 30 26" fill="none" xmlns="http://www.w3.org/2000/svg">
<path d="M5.66667 13C4.95942 13 4.28115 12.719 3.78105 12.219C3.28095 11.7189 3 11.0406 3 10.3333C3 7.85798 4.26428 5.48401 6.51472 3.73367C8.76516 1.98333 11.8174 1 15 1C18.1826 1 21.2348 1.98333 23.4853 3.73367C25.7357 5.48401 27 7.85798 27 10.3333C27 11.0406 26.719 11.7189 26.219 12.219C25.7189 12.719 25.0406 13 24.3333 13L19.6667 18.4667C18.6 19.8 16.4667 19.9333 15.1333 18.8667L8.33333 13" stroke="#7A1022" stroke-width="2" stroke-linecap="round" stroke-linejoin="round"/>
<path d="M14.6 18.3333H4.33332C3.62608 18.3333 2.9478 18.0524 2.4477 17.5523C1.94761 17.0522 1.66666 16.3739 1.66666 15.6667C1.66666 14.9594 1.94761 14.2811 2.4477 13.781C2.9478 13.281 3.62608 13 4.33332 13H25.6667C26.3739 13 27.0522 13.281 27.5523 13.781C28.0524 14.2811 28.3333 14.9594 28.3333 15.6667C28.3333 16.3739 28.0524 17.0522 27.5523 17.5523C27.0522 18.0524 26.3739 18.3333 25.6667 18.3333H19.9333M5.66666 18.3333C4.95941 18.3333 4.28114 18.6143 3.78104 19.1144C3.28094 19.6145 2.99999 20.2928 2.99999 21C2.99999 23.2667 4.73332 25 6.99999 25H23C25.2667 25 27 23.2667 27 21C27 20.2928 26.719 19.6145 26.2189 19.1144C25.7188 18.6143 25.0406 18.3333 24.3333 18.3333" stroke="#7A1022" stroke-width="2" stroke-linecap="round" stroke-linejoin="round"/>
</svg>
