<svg width="20" height="18" viewBox="0 0 20 18" fill="none" xmlns="http://www.w3.org/2000/svg">
<path d="M9.99999 2.8125C9.7396 2.81244 9.48453 2.88633 9.26448 3.02556C9.04443 3.1648 8.86845 3.36366 8.757 3.599C8.63718 3.84182 8.42667 4.02778 8.17092 4.11672C7.91517 4.20566 7.63471 4.19045 7.39008 4.07436C7.14545 3.95828 6.95629 3.75064 6.86345 3.49628C6.77061 3.24192 6.78154 2.96125 6.89387 2.71487C7.1239 2.23011 7.46422 1.80592 7.8876 1.47627C8.31097 1.14661 8.80564 0.920649 9.332 0.816461C9.85837 0.712273 10.4018 0.732755 10.9188 0.876265C11.4359 1.01978 11.9121 1.28233 12.3095 1.64291C12.7068 2.0035 13.0143 2.4521 13.2072 2.95281C13.4001 3.45351 13.4731 3.99242 13.4203 4.5264C13.3676 5.06038 13.1906 5.5746 12.9035 6.0279C12.6163 6.4812 12.2271 6.86099 11.7669 7.13687C11.5468 7.26286 11.3474 7.42193 11.1756 7.6085C11.0464 7.75975 11.0312 7.8505 11.0312 7.89175C11.0312 7.988 11.0835 8.07875 11.1687 8.1255L18.1922 12.0277C18.7324 12.3272 19.1578 12.7976 19.4015 13.3651C19.6452 13.9326 19.6934 14.565 19.5385 15.1629C19.3835 15.7608 19.0344 16.2903 18.5458 16.668C18.0572 17.0458 17.4569 17.2506 16.8392 17.25H3.15524C2.53842 17.2498 1.93911 17.0448 1.45131 16.6673C0.963508 16.2897 0.614802 15.761 0.459876 15.1639C0.30495 14.5669 0.352565 13.9353 0.595254 13.3682C0.837943 12.8011 1.26198 12.3306 1.80087 12.0305L7.09325 9.088C7.21183 9.01838 7.34313 8.97317 7.47944 8.95505C7.61575 8.93692 7.7543 8.94624 7.88696 8.98245C8.01961 9.01867 8.14368 9.08105 8.25187 9.16592C8.36006 9.25079 8.45019 9.35644 8.51695 9.47666C8.5837 9.59687 8.62574 9.72923 8.64059 9.86593C8.65544 10.0026 8.6428 10.1409 8.60342 10.2727C8.56403 10.4044 8.4987 10.527 8.41125 10.6331C8.32381 10.7392 8.21603 10.8268 8.09424 10.8906L2.80324 13.8331C2.66258 13.9105 2.55171 14.0325 2.48819 14.18C2.42466 14.3274 2.41209 14.4918 2.45248 14.6472C2.49286 14.8026 2.58389 14.9401 2.71116 15.0379C2.83844 15.1358 2.9947 15.1884 3.15524 15.1875H16.8392C16.9996 15.1878 17.1556 15.1347 17.2825 15.0367C17.4095 14.9387 17.5002 14.8012 17.5405 14.646C17.5808 14.4908 17.5684 14.3265 17.5052 14.1791C17.4419 14.0317 17.3315 13.9095 17.1912 13.8317L10.165 9.92812C9.8027 9.72576 9.50081 9.4306 9.29034 9.07296C9.07986 8.71532 8.96839 8.3081 8.96737 7.89312C8.96737 7.218 9.26299 6.67212 9.59987 6.27475C9.92987 5.88287 10.3424 5.5845 10.704 5.36725C10.9619 5.21283 11.1622 4.97814 11.274 4.69909C11.3859 4.42005 11.4032 4.11204 11.3233 3.82221C11.2435 3.53239 11.0708 3.27672 10.8318 3.09436C10.5928 2.912 10.3006 2.81299 9.99999 2.8125Z" fill="#7A1022"/>
</svg>
