<svg width="26" height="26" viewBox="0 0 26 26" fill="none" xmlns="http://www.w3.org/2000/svg">
<path d="M9.00001 9.00002C10.4728 9.00002 11.6667 7.80611 11.6667 6.33335C11.6667 4.86059 10.4728 3.66669 9.00001 3.66669C7.52725 3.66669 6.33334 4.86059 6.33334 6.33335C6.33334 7.80611 7.52725 9.00002 9.00001 9.00002Z" stroke="#7A1022" stroke-width="2" stroke-linecap="round" stroke-linejoin="round"/>
<path d="M6.6 7.53333L1 11.6667V23.6667C1 24.4667 1.53333 25 2.33333 25H23.6667C24.4667 25 25 24.4667 25 23.6667V11.6667C25 9 21 3.66667 15.6667 1L10.8667 4.46667M18.3333 14.3333H1M18.3333 19.6667H1" stroke="#7A1022" stroke-width="2" stroke-linecap="round" stroke-linejoin="round"/>
</svg>
