<svg width="19" height="16" viewBox="0 0 19 16" fill="none" xmlns="http://www.w3.org/2000/svg">
<path d="M18.5333 8.99999V11.9333C18.5333 12.1278 18.4561 12.3143 18.3185 12.4519C18.181 12.5894 17.9945 12.6667 17.8 12.6667C17.6055 12.6667 17.419 12.5894 17.2814 12.4519C17.1439 12.3143 17.0667 12.1278 17.0667 11.9333C17.0667 11.9333 17.1547 11.2 15.6 11.2H14.1333V14.8667C14.1333 15.0611 14.0561 15.2477 13.9185 15.3852C13.781 15.5227 13.5945 15.6 13.4 15.6H1.66665C1.47216 15.6 1.28563 15.5227 1.14811 15.3852C1.01058 15.2477 0.933319 15.0611 0.933319 14.8667V8.99999C0.933319 8.80549 1.01058 8.61897 1.14811 8.48144C1.28563 8.34391 1.47216 8.26665 1.66665 8.26665H13.4C13.5945 8.26665 13.781 8.34391 13.9185 8.48144C14.0561 8.61897 14.1333 8.80549 14.1333 8.99999V9.73332H15.6C17.1547 9.73332 17.0667 8.99999 17.0667 8.99999C17.0667 8.80549 17.1439 8.61897 17.2814 8.48144C17.419 8.34391 17.6055 8.26665 17.8 8.26665C17.9945 8.26665 18.181 8.34391 18.3185 8.48144C18.4561 8.61897 18.5333 8.80549 18.5333 8.99999ZM3.86665 2.39999C3.08868 2.39999 2.34258 2.70903 1.79247 3.25914C1.24237 3.80925 0.933319 4.55535 0.933319 5.33332C0.933319 6.11129 1.24237 6.85739 1.79247 7.4075C2.34258 7.95761 3.08868 8.26665 3.86665 8.26665C4.64462 8.26665 5.39073 7.95761 5.94083 7.4075C6.49094 6.85739 6.79999 6.11129 6.79999 5.33332C6.79999 4.55535 6.49094 3.80925 5.94083 3.25914C5.39073 2.70903 4.64462 2.39999 3.86665 2.39999ZM3.86665 6.79999C3.47767 6.79999 3.10462 6.64546 2.82956 6.37041C2.55451 6.09536 2.39999 5.7223 2.39999 5.33332C2.39999 4.94433 2.55451 4.57128 2.82956 4.29623C3.10462 4.02118 3.47767 3.86665 3.86665 3.86665C4.25564 3.86665 4.62869 4.02118 4.90374 4.29623C5.1788 4.57128 5.33332 4.94433 5.33332 5.33332C5.33332 5.7223 5.1788 6.09536 4.90374 6.37041C4.62869 6.64546 4.25564 6.79999 3.86665 6.79999ZM10.4667 0.933319C9.49419 0.933319 8.56156 1.31963 7.87393 2.00726C7.18629 2.69489 6.79999 3.62753 6.79999 4.59999C6.79999 5.57245 7.18629 6.50508 7.87393 7.19271C8.56156 7.88034 9.49419 8.26665 10.4667 8.26665C11.4391 8.26665 12.3717 7.88034 13.0594 7.19271C13.747 6.50508 14.1333 5.57245 14.1333 4.59999C14.1333 3.62753 13.747 2.69489 13.0594 2.00726C12.3717 1.31963 11.4391 0.933319 10.4667 0.933319ZM10.4667 6.79999C9.88318 6.79999 9.3236 6.5682 8.91102 6.15562C8.49844 5.74304 8.26665 5.18346 8.26665 4.59999C8.26665 4.01651 8.49844 3.45693 8.91102 3.04435C9.3236 2.63177 9.88318 2.39999 10.4667 2.39999C11.0501 2.39999 11.6097 2.63177 12.0223 3.04435C12.4349 3.45693 12.6667 4.01651 12.6667 4.59999C12.6667 5.18346 12.4349 5.74304 12.0223 6.15562C11.6097 6.5682 11.0501 6.79999 10.4667 6.79999Z" fill="#7A1022"/>
</svg>
