<svg width="22" height="26" viewBox="0 0 22 26" fill="none" xmlns="http://www.w3.org/2000/svg">
<path d="M3.91467 17H18.0867M3.68667 14.3333H18.3147M5.324 6.33333H16.676M5.324 6.33333C4.51734 6.33333 4.11467 6.33333 3.81734 6.49333C3.55586 6.63524 3.34935 6.86052 3.23067 7.13333C3.096 7.444 3.12934 7.84533 3.19867 8.648L4.26534 21.0973C4.384 22.4733 4.44267 23.164 4.748 23.684C5.01758 24.1429 5.41832 24.5107 5.89867 24.74C6.44534 25 7.13467 25 8.51734 25H13.484C14.8653 25 15.556 25 16.1013 24.74C16.5817 24.5107 16.9824 24.1429 17.252 23.684C17.5587 23.164 17.6173 22.4747 17.7347 21.0973L18.8013 8.64667C18.8707 7.844 18.9053 7.444 18.7707 7.13467C18.652 6.86186 18.4455 6.63657 18.184 6.49467C17.8867 6.33333 17.4813 6.33333 16.676 6.33333M5.324 6.33333H4C2.8 6.33333 2.2 6.33333 1.852 6.08267C1.69964 5.9729 1.57218 5.83218 1.47797 5.66973C1.38376 5.50728 1.32494 5.32676 1.30534 5.14C1.26 4.71333 1.55867 4.19067 2.15467 3.148C2.6 2.368 2.82267 1.97733 3.136 1.69333C3.41561 1.43923 3.74601 1.24744 4.10534 1.13067C4.50534 1 4.956 1 5.85334 1H16.1467C17.0453 1 17.4933 1 17.896 1.13067C18.256 1.24667 18.5853 1.43867 18.864 1.69333C19.1773 1.97733 19.4 2.36667 19.8453 3.14667C20.4413 4.18933 20.74 4.712 20.6947 5.14C20.6751 5.32676 20.6162 5.50728 20.522 5.66973C20.4278 5.83218 20.3004 5.9729 20.148 6.08267C19.8027 6.33333 19.2 6.33333 18.0027 6.33333H16.676" stroke="#7A1022" stroke-width="2" stroke-linecap="round" stroke-linejoin="round"/>
</svg>
