<svg width="27" height="27" viewBox="0 0 27 27" fill="none" xmlns="http://www.w3.org/2000/svg">
<path d="M1.66665 16.3333C1.66665 16.3333 1.63757 18.8317 2.63757 21.8317C3.21907 23.5761 3.91332 24.6443 4.78579 25.1674C5.90385 25.8376 7.05045 24.5143 7.70525 23.3871C8.34679 22.2829 9.28899 21.1517 10.0319 20.3333" stroke="#7A1022" stroke-width="2" stroke-linecap="round" stroke-linejoin="round"/>
<path d="M19.0001 2.27423C20.7487 2.5669 22.6877 2.94433 23.4173 3.27902C24.3678 3.7151 25.3239 4.60364 25.7049 5.55337C26.0589 6.43604 25.1401 7.11337 24.3094 7.5763C23.3729 8.0981 22.3969 8.9161 21.5992 9.66637" stroke="#7A1022" stroke-width="2" stroke-linecap="round" stroke-linejoin="round"/>
<path d="M13.1347 16.8505L11.4668 18.0089C11.1617 18.2208 10.9225 18.5141 10.7762 18.8554C10.3469 19.8571 9.18892 20.3238 8.18506 19.8996L2.86868 17.6534C1.88711 17.2386 1.41195 16.1197 1.7952 15.1254L2.0956 14.3461C2.68211 12.8245 3.75432 11.539 5.14586 10.6888" stroke="#7A1022" stroke-width="2" stroke-linecap="round" stroke-linejoin="round"/>
<path d="M17.4799 13.3384L18.4066 12.3357L19.0147 11.6778C19.2247 11.4505 19.4803 11.2701 19.7648 11.1481C20.8339 10.6899 21.3627 9.47959 20.9725 8.38379L19.0711 3.04381C18.7539 2.15321 17.8205 1.64084 16.8989 1.85147L16.0865 2.03716C14.3167 2.44164 12.7651 3.4998 11.7424 4.99972" stroke="#7A1022" stroke-width="2" stroke-linecap="round" stroke-linejoin="round"/>
<path d="M5.94058 12.3856C4.84972 11.6064 4.55398 10.1102 5.26225 8.97204C6.29525 7.31198 7.70118 5.90931 9.36485 4.88211C10.4799 4.19371 11.9359 4.46931 12.7222 5.51764L16.6769 10.7905C17.5825 11.998 17.3063 13.7157 16.0679 14.5785L15.9079 14.69C15.7073 14.8298 15.5269 14.9964 15.3717 15.1854L14.916 15.7402C14.0255 16.8244 12.4471 17.0331 11.3054 16.2176L5.94058 12.3856Z" stroke="#7A1022" stroke-width="2"/>
</svg>
