<svg width="34" height="34" viewBox="0 0 34 34" fill="none" xmlns="http://www.w3.org/2000/svg">
<path d="M10.3333 17L13.6667 14.5L10.3333 12M23.6667 17L20.3333 14.5L23.6667 12M23.6667 24.0833L21.445 22.4167L19.2217 24.0833L17 22.4167L14.7783 24.0833L12.555 22.4167L10.3333 24.0833" stroke="#7A1022" stroke-width="3" stroke-linecap="round" stroke-linejoin="round"/>
<path d="M32 17C32 18.9698 31.612 20.9204 30.8582 22.7403C30.1044 24.5601 28.9995 26.2137 27.6066 27.6066C26.2137 28.9995 24.5601 30.1044 22.7403 30.8582C20.9204 31.612 18.9698 32 17 32C15.0302 32 13.0796 31.612 11.2597 30.8582C9.43986 30.1044 7.78628 28.9995 6.3934 27.6066C5.00052 26.2137 3.89563 24.5601 3.14181 22.7403C2.38799 20.9204 2 18.9698 2 17C2 13.0218 3.58035 9.20644 6.3934 6.3934C9.20644 3.58035 13.0218 2 17 2C20.9782 2 24.7936 3.58035 27.6066 6.3934C30.4196 9.20644 32 13.0218 32 17Z" stroke="#7A1022" stroke-width="3" stroke-linecap="round" stroke-linejoin="round"/>
</svg>
