<svg width="20" height="20" viewBox="0 0 20 20" fill="none" xmlns="http://www.w3.org/2000/svg">
<path d="M6.07667 14.0847L7.69092 13.619L17.4103 3.78317C17.487 3.70461 17.5297 3.59905 17.5292 3.48928C17.5287 3.37951 17.485 3.27435 17.4076 3.19651L16.8255 2.60801C16.7879 2.56936 16.743 2.53859 16.6933 2.51749C16.6437 2.4964 16.5903 2.4854 16.5364 2.48515C16.4825 2.48489 16.429 2.49538 16.3792 2.516C16.3294 2.53662 16.2841 2.56697 16.2462 2.60526L6.55242 12.4154L6.07667 14.0847ZM17.9778 1.44201L18.5598 2.03142C19.3628 2.84451 19.3702 4.15626 18.5745 4.96109L8.559 15.0976L5.10867 16.0913C5.00436 16.1206 4.8953 16.1291 4.78771 16.1162C4.68012 16.1034 4.57612 16.0695 4.48163 16.0165C4.38715 15.9634 4.30403 15.8923 4.23704 15.8072C4.17004 15.722 4.12047 15.6245 4.09117 15.5202C4.04621 15.3689 4.04558 15.2079 4.08934 15.0563L5.09309 11.5363L15.082 1.42642C15.2719 1.23517 15.4981 1.08365 15.7472 0.980696C15.9963 0.877746 16.2634 0.825428 16.533 0.826793C16.8025 0.828158 17.0691 0.88318 17.3171 0.988648C17.5652 1.09412 17.7898 1.24884 17.9778 1.44201ZM7.41867 2.49892C7.87334 2.49892 8.24184 2.87201 8.24184 3.33217C8.24256 3.44095 8.22184 3.54881 8.18085 3.64957C8.13986 3.75034 8.07941 3.84203 8.00296 3.91942C7.92651 3.99681 7.83556 4.05837 7.7353 4.10058C7.63504 4.14279 7.52745 4.16482 7.41867 4.16542H4.126C3.21667 4.16542 2.47967 4.91159 2.47967 5.83101V15.8282C2.47967 16.7485 3.21667 17.4947 4.126 17.4947H14.004C14.9133 17.4947 15.6513 16.7485 15.6513 15.8282V12.4961C15.6513 12.0359 16.0198 11.6628 16.4744 11.6628C16.9291 11.6628 17.2976 12.0359 17.2976 12.497V15.8282C17.2976 17.6688 15.8227 19.1612 14.004 19.1612H4.126C2.30734 19.1612 0.833336 17.6688 0.833336 15.8282V5.83101C0.833336 3.99126 2.30734 2.49892 4.126 2.49892H7.41867Z" fill="#7A1022"/>
</svg>
