<svg width="22" height="22" viewBox="0 0 22 22" fill="none" xmlns="http://www.w3.org/2000/svg">
<path d="M0.916664 0.605927L6.85666 2.36501C8.12166 1.81043 9.52508 1.50243 11 1.50243C12.4749 1.50243 13.8783 1.81043 15.1433 2.36409L21.0833 0.606843V11.6554H21.0769C20.8798 16.9198 16.4175 21.0833 11 21.0833C5.5825 21.0833 1.12016 16.9198 0.923081 11.6545H0.916664V0.605927ZM2.75 5.66226C3.30526 4.90024 3.96465 4.21986 4.70891 3.64101L2.75 3.06076V5.66226ZM2.75 11.2933C2.75 15.6594 6.41575 19.25 11 19.25C15.5842 19.25 19.25 15.6594 19.25 11.2933C19.25 8.18584 17.4011 5.47801 14.6758 4.16718C13.5289 3.61662 12.2722 3.3327 11 3.33668C9.72769 3.33299 8.47104 3.61722 7.32416 4.16809C4.598 5.47801 2.75 8.18584 2.75 11.2933ZM19.25 5.66226V3.06168L17.2911 3.64193C18.0353 4.2205 18.6947 4.90056 19.25 5.66226ZM8.25 8.25001V11H6.41666V8.25001H8.25ZM15.5833 8.25001V11H13.75V8.25001H15.5833ZM11 11.242L11.8195 12.8819C12.1669 13.5758 12.6051 13.7848 12.9094 13.8105C13.2211 13.8362 13.6052 13.6904 13.904 13.2422L14.4127 12.4786L15.9381 13.4961L15.4293 14.2588C14.8115 15.1846 13.8206 15.7254 12.7572 15.6374C12.1037 15.5824 11.5005 15.2983 11 14.8262C10.4995 15.2983 9.89633 15.5833 9.24275 15.6374C8.17941 15.7263 7.1885 15.1855 6.57066 14.2588L6.06191 13.4961L7.58725 12.4786L8.096 13.2413C8.39483 13.6904 8.77891 13.8371 9.09058 13.8105C9.39491 13.7848 9.83308 13.5758 10.1805 12.8819L11 11.242Z" fill="#7A1022"/>
</svg>
