<svg width="18" height="22" viewBox="0 0 18 22" fill="none" xmlns="http://www.w3.org/2000/svg">
<path d="M2.71442 12.8333C2.0266 11.707 1.66397 10.4122 1.66667 9.09243C1.66667 5.08293 4.95017 1.83334 9 1.83334C13.0498 1.83334 16.3333 5.08293 16.3333 9.09243C16.336 10.4122 15.9734 11.707 15.2856 12.8333M11.75 17.4167L11.6308 18.0098C11.5025 18.6578 11.4374 18.9814 11.2917 19.2381C11.0671 19.6337 10.7034 19.9317 10.2714 20.0741C9.99183 20.1667 9.66 20.1667 9 20.1667C8.34 20.1667 8.00817 20.1667 7.72858 20.075C7.29641 19.9323 6.93275 19.634 6.70833 19.2381C6.56258 18.9814 6.4975 18.6578 6.36917 18.0098L6.25 17.4167M9 14.6667V10.0833M4.76775 15.6732C4.68342 15.4202 4.64125 15.2928 4.64583 15.1901C4.65102 15.0839 4.68685 14.9816 4.749 14.8953C4.81114 14.8091 4.89693 14.7427 4.996 14.7043C5.09133 14.6667 5.22517 14.6667 5.491 14.6667H12.509C12.7758 14.6667 12.9087 14.6667 13.004 14.7033C13.1032 14.7419 13.1891 14.8084 13.2512 14.8948C13.3134 14.9812 13.3492 15.0838 13.3542 15.1901C13.3588 15.2928 13.3166 15.4193 13.2323 15.6732C13.0764 16.1416 12.9985 16.3763 12.8784 16.566C12.6273 16.9626 12.2335 17.2477 11.7784 17.3626C11.5603 17.4167 11.3146 17.4167 10.8223 17.4167H7.17767C6.68542 17.4167 6.43883 17.4167 6.22158 17.3617C5.76661 17.247 5.37292 16.9622 5.12158 16.566C5.0015 16.3763 4.92358 16.1416 4.76775 15.6732Z" stroke="#7A1022" stroke-width="2" stroke-linecap="round" stroke-linejoin="round"/>
</svg>
