<svg width="20" height="16" viewBox="0 0 20 16" fill="none" xmlns="http://www.w3.org/2000/svg">
<path d="M2.66667 3.08025C2.795 3.02831 2.94869 2.973 3.12775 2.91433C4.01647 2.63459 4.9433 2.49481 5.875 2.5C6.80669 2.49481 7.73353 2.63459 8.62225 2.91433C8.8013 2.973 8.955 3.02831 9.08333 3.08025V13.0536C8.04359 12.7365 6.962 12.578 5.875 12.5833C4.53667 12.5833 3.44675 12.8107 2.66667 13.0536V3.08025ZM10 1.47792C9.73429 1.36069 9.46258 1.25757 9.186 1.169C8.1151 0.830685 6.99805 0.66121 5.875 0.666667C4.47617 0.666667 3.34958 0.915083 2.564 1.169C2.25131 1.26949 1.94491 1.38856 1.64642 1.52558C1.53553 1.57693 1.42639 1.63196 1.31917 1.69058L1.29625 1.70342L1.288 1.708L1.28525 1.70983C1.28342 1.71167 1.05792 1.84458 1.2825 1.71167C1.14566 1.7928 1.03229 1.90814 0.95354 2.04636C0.874787 2.18458 0.83336 2.34092 0.833332 2.5V14.4167C0.83336 14.5785 0.876212 14.7374 0.957533 14.8772C1.03885 15.0171 1.15575 15.133 1.29634 15.213C1.43693 15.2931 1.59621 15.3346 1.758 15.3331C1.91979 15.3317 2.07833 15.2875 2.2175 15.205L2.21292 15.2078L2.21567 15.2068L2.21658 15.2059L2.2505 15.1876C2.28472 15.1692 2.34033 15.1417 2.41733 15.1051C2.57317 15.0336 2.8115 14.9328 3.12775 14.8301C4.01652 14.5507 4.94335 14.4112 5.875 14.4167C6.80665 14.4112 7.73348 14.5507 8.62225 14.8301C8.86429 14.9076 9.10152 14.9994 9.33267 15.1051C9.40186 15.1372 9.47003 15.1714 9.53708 15.2078M9.53708 15.2078L9.53525 15.2068L9.53433 15.2059C9.82217 15.3755 10.1797 15.3755 10.4675 15.2059L10.5014 15.1876C10.5356 15.1692 10.5912 15.1417 10.6682 15.1051C10.8994 14.9994 11.1366 14.9076 11.3787 14.8301C12.2671 14.5507 13.1937 14.4113 14.125 14.4167C15.0566 14.4112 15.9835 14.5507 16.8722 14.8301C17.1143 14.9076 17.3515 14.9994 17.5827 15.1051C17.6506 15.1366 17.7175 15.1703 17.7834 15.2059C17.9226 15.2882 18.0812 15.3323 18.2429 15.3335C18.4046 15.3348 18.5638 15.2932 18.7043 15.2131C18.8448 15.1329 18.9615 15.017 19.0427 14.8771C19.1239 14.7373 19.1667 14.5784 19.1667 14.4167V2.5C19.1666 2.34092 19.1252 2.18458 19.0465 2.04636C18.9677 1.90814 18.8543 1.7928 18.7175 1.71167L18.7157 1.71075L18.712 1.708L18.7028 1.70342L18.6808 1.69058C18.5736 1.63196 18.4645 1.57693 18.3536 1.52558C18.0554 1.3886 17.7493 1.26952 17.4369 1.169C16.3657 0.83059 15.2484 0.661114 14.125 0.666667C12.7271 0.666667 11.5996 0.915083 10.814 1.169C10.5374 1.25757 10.2657 1.36069 10 1.47792M17.3333 3.08025V13.0536C16.2936 12.7365 15.212 12.578 14.125 12.5833C12.7867 12.5833 11.6967 12.8107 10.9167 13.0536V3.08025C11.045 3.02831 11.1987 2.973 11.3777 2.91433C12.2665 2.63459 13.1933 2.49481 14.125 2.5C15.0567 2.49481 15.9835 2.63459 16.8722 2.91433C17.0513 2.973 17.205 3.02831 17.3333 3.08025ZM17.7825 3.28925L17.7871 3.29108H17.7862L17.7825 3.28925ZM17.7834 15.2059L17.7862 15.2078L17.7843 15.2059" fill="#7A1022"/>
</svg>
