<svg width="19" height="19" viewBox="0 0 19 19" fill="none" xmlns="http://www.w3.org/2000/svg">
<path d="M18.25 2.74835V13.5834C18.2498 14.3905 17.9833 15.175 17.4919 15.8152C17.0004 16.4555 16.3114 16.9157 15.5317 17.1244C14.7521 17.3332 13.9253 17.2789 13.1797 16.9699C12.434 16.6609 11.8112 16.1145 11.4077 15.4155C11.0042 14.7165 10.8427 13.9038 10.9481 13.1036C11.0535 12.3034 11.42 11.5604 11.9908 10.9897C12.5615 10.419 13.3046 10.0525 14.1048 9.94722C14.9051 9.84189 15.7177 10.0035 16.4167 10.4071V6.41594L7.25 7.9431V14.5C7.25 14.555 7.24542 14.6082 7.23625 14.6595C7.30206 15.3644 7.13287 16.0713 6.75504 16.67C6.37722 17.2687 5.81197 17.7256 5.14737 17.9696C4.48277 18.2135 3.75614 18.2308 3.08069 18.0187C2.40524 17.8067 1.81891 17.3771 1.41305 16.7971C1.00718 16.217 0.804577 15.519 0.8368 14.8117C0.869022 14.1045 1.13426 13.4278 1.59119 12.887C2.04812 12.3463 2.67109 11.9718 3.36302 11.8221C4.05496 11.6723 4.777 11.7556 5.41667 12.0589V4.27644C5.41661 3.84245 5.57052 3.42252 5.851 3.09135C6.13148 2.76018 6.52034 2.53924 6.94842 2.46785L16.1151 0.940686C16.3777 0.896893 16.6467 0.910814 16.9033 0.98148C17.16 1.05215 17.3982 1.17786 17.6014 1.34989C17.8045 1.52192 17.9678 1.73613 18.0798 1.97763C18.1918 2.21913 18.2499 2.48214 18.25 2.74835ZM4.04167 13.5834C3.67699 13.5834 3.32726 13.7282 3.06939 13.9861C2.81153 14.2439 2.66667 14.5937 2.66667 14.9584C2.66667 15.323 2.81153 15.6728 3.06939 15.9306C3.32726 16.1885 3.67699 16.3334 4.04167 16.3334C4.40634 16.3334 4.75608 16.1885 5.01394 15.9306C5.2718 15.6728 5.41667 15.323 5.41667 14.9584C5.41667 14.5937 5.2718 14.2439 5.01394 13.9861C4.75608 13.7282 4.40634 13.5834 4.04167 13.5834ZM14.5833 11.75C14.0971 11.75 13.6308 11.9432 13.287 12.287C12.9432 12.6308 12.75 13.0971 12.75 13.5834C12.75 14.0696 12.9432 14.5359 13.287 14.8797C13.6308 15.2235 14.0971 15.4167 14.5833 15.4167C15.0696 15.4167 15.5359 15.2235 15.8797 14.8797C16.2235 14.5359 16.4167 14.0696 16.4167 13.5834C16.4167 13.0971 16.2235 12.6308 15.8797 12.287C15.5359 11.9432 15.0696 11.75 14.5833 11.75ZM16.4167 2.74835L7.25 4.27644V6.08502L16.4167 4.55694V2.74835Z" fill="#7A1022"/>
</svg>
