<svg width="20" height="20" viewBox="0 0 20 20" fill="none" xmlns="http://www.w3.org/2000/svg">
<path d="M10 19.1667C8.79622 19.1667 7.60422 18.9296 6.49207 18.4689C5.37992 18.0082 4.36939 17.333 3.51819 16.4818C1.79911 14.7627 0.833336 12.4311 0.833336 10C0.833336 7.56884 1.79911 5.23727 3.51819 3.51818C5.23727 1.7991 7.56885 0.833328 10 0.833328C15.0417 0.833328 19.1667 4.49999 19.1667 9.08333C19.1667 10.542 18.5872 11.941 17.5558 12.9724C16.5243 14.0039 15.1254 14.5833 13.6667 14.5833H12.0167C11.7417 14.5833 11.5583 14.7667 11.5583 15.0417C11.5583 15.1333 11.65 15.225 11.65 15.3167C12.0167 15.775 12.2 16.325 12.2 16.875C12.2917 18.1583 11.2833 19.1667 10 19.1667ZM10 2.66666C8.05508 2.66666 6.18982 3.43928 4.81455 4.81455C3.43929 6.18981 2.66667 8.05507 2.66667 10C2.66667 11.9449 3.43929 13.8102 4.81455 15.1854C6.18982 16.5607 8.05508 17.3333 10 17.3333C10.275 17.3333 10.4583 17.15 10.4583 16.875C10.4583 16.6917 10.3667 16.6 10.3667 16.5083C10 16.05 9.81667 15.5917 9.81667 15.0417C9.81667 13.7583 10.825 12.75 12.1083 12.75H13.6667C14.6391 12.75 15.5718 12.3637 16.2594 11.6761C16.947 10.9884 17.3333 10.0558 17.3333 9.08333C17.3333 5.50833 14.0333 2.66666 10 2.66666ZM4.95834 8.16666C5.69167 8.16666 6.33334 8.80833 6.33334 9.54166C6.33334 10.275 5.69167 10.9167 4.95834 10.9167C4.225 10.9167 3.58334 10.275 3.58334 9.54166C3.58334 8.80833 4.225 8.16666 4.95834 8.16666ZM7.70834 4.49999C8.44167 4.49999 9.08334 5.14166 9.08334 5.875C9.08334 6.60833 8.44167 7.25 7.70834 7.25C6.975 7.25 6.33334 6.60833 6.33334 5.875C6.33334 5.14166 6.975 4.49999 7.70834 4.49999ZM12.2917 4.49999C13.025 4.49999 13.6667 5.14166 13.6667 5.875C13.6667 6.60833 13.025 7.25 12.2917 7.25C11.5583 7.25 10.9167 6.60833 10.9167 5.875C10.9167 5.14166 11.5583 4.49999 12.2917 4.49999ZM15.0417 8.16666C15.775 8.16666 16.4167 8.80833 16.4167 9.54166C16.4167 10.275 15.775 10.9167 15.0417 10.9167C14.3083 10.9167 13.6667 10.275 13.6667 9.54166C13.6667 8.80833 14.3083 8.16666 15.0417 8.16666Z" fill="#7A1022"/>
</svg>
