<svg width="26" height="30" viewBox="0 0 26 30" fill="none" xmlns="http://www.w3.org/2000/svg">
<path d="M10.6267 24.0947L21.9067 16.508C23.8333 15.212 24.796 14.564 24.972 13.384C25.1453 12.204 24.5133 11.4107 23.248 9.82402C20.344 6.18402 16.3973 3.47069 11.8827 2.17469C10.1653 1.68135 9.30667 1.43602 8.38667 1.95869C7.46667 2.48135 7.16534 3.50135 6.56401 5.54135L2.87467 18.0707C1.14934 23.9334 0.286672 26.864 1.73067 27.9854C3.17467 29.1067 5.65867 27.436 10.6267 24.0947Z" stroke="#7A1022" stroke-width="1.5" stroke-linecap="round" stroke-linejoin="round"/>
<path d="M7.00001 5.66669C7.00001 5.66669 7.71734 5.82402 8.86667 6.17469C12.5093 7.28802 15.76 9.44402 18.3333 12.3347M14.344 13.6667H14.332M5.37867 9.60535C6.81201 9.99869 7.72534 11.3094 7.72534 12.9027C7.72534 15.1254 5.56534 16.824 3.43201 16.2187M7.96401 23.9987C7.22801 22.7054 7.42934 21.012 8.55601 19.884C9.90134 18.5387 12.056 18.5134 13.3693 19.8267C13.5898 20.0489 13.772 20.2907 13.916 20.552" stroke="#7A1022" stroke-width="1.5" stroke-linecap="round" stroke-linejoin="round"/>
<path d="M14.2307 21.6574C13.836 20.1307 12.544 19.012 11.012 19.012C9.16534 19.012 7.66934 20.6374 7.66934 22.6414C7.66934 23.704 8.08934 24.6587 8.75868 25.3227" stroke="#7A1022" stroke-width="1.5" stroke-linecap="round" stroke-linejoin="round"/>
</svg>
