<svg width="22" height="22" viewBox="0 0 22 22" fill="none" xmlns="http://www.w3.org/2000/svg">
<path fill-rule="evenodd" clip-rule="evenodd" d="M11.5343 5.17157C10.7087 5.38827 9.98994 5.89759 9.51186 6.60471C9.42695 6.73742 9.31631 6.85175 9.18646 6.94096C9.05661 7.03017 8.9102 7.09244 8.75587 7.12409C8.60154 7.15574 8.44243 7.15613 8.28795 7.12523C8.13347 7.09434 7.98675 7.03278 7.85647 6.94421C7.72619 6.85564 7.61498 6.74185 7.52943 6.60956C7.44388 6.47727 7.38572 6.32918 7.35839 6.17403C7.33106 6.01888 7.33511 5.85982 7.3703 5.70626C7.40549 5.5527 7.47111 5.40776 7.56329 5.28C8.04049 4.57704 8.66406 3.98558 9.39125 3.54618C10.1184 3.10677 10.932 2.82981 11.7763 2.73428C11.1846 2.40817 10.497 2.30079 9.834 2.431C9.53173 2.48114 9.22181 2.4116 8.96995 2.23711C8.71808 2.06261 8.54407 1.79689 8.48481 1.49628C8.42554 1.19566 8.48568 0.883781 8.65247 0.626753C8.81927 0.369726 9.0796 0.187758 9.37829 0.119427C10.4453 -0.0909972 11.5513 0.0362488 12.5427 0.483475C13.534 0.930701 14.3613 1.67568 14.9097 2.61486C15.9402 2.22992 17.0618 2.16004 18.1321 2.41411C19.2024 2.66818 20.1729 3.23471 20.9204 4.04171C21.0257 4.15521 21.1075 4.28833 21.1613 4.43347C21.2151 4.5786 21.2398 4.73291 21.234 4.88759C21.2281 5.04226 21.1919 5.19427 21.1273 5.33494C21.0627 5.47561 20.9711 5.60218 20.8576 5.70743C20.7441 5.81267 20.611 5.89453 20.4658 5.94833C20.3207 6.00213 20.1664 6.02682 20.0117 6.02098C19.857 6.01514 19.705 5.9789 19.5643 5.91431C19.4237 5.84973 19.2971 5.75807 19.1919 5.64457C18.664 5.074 17.9459 4.71581 17.1726 4.63728H17.1631C17.7238 5.24471 18.1312 5.97739 18.3512 6.77421C18.5713 7.57103 18.5977 8.40892 18.4281 9.218C18.3973 9.37038 18.3366 9.51515 18.2496 9.64397C18.1625 9.77279 18.0508 9.88312 17.921 9.9686C17.7911 10.0541 17.6456 10.113 17.4929 10.142C17.3401 10.171 17.1832 10.1695 17.031 10.1376C16.8788 10.1057 16.7345 10.044 16.6063 9.95601C16.4781 9.86806 16.3686 9.75561 16.284 9.62514C16.1994 9.49468 16.1415 9.34877 16.1136 9.19583C16.0857 9.04288 16.0883 8.88593 16.1213 8.734C16.2561 8.08989 16.1621 7.41894 15.8554 6.83668C15.5488 6.25442 15.0488 5.79729 14.4414 5.544C13.7704 6.00128 13.2063 6.75243 12.7773 7.79114C12.3499 8.82514 12.0859 10.0839 11.9853 11.4557C12.8628 11.6809 13.7003 12.0403 14.4681 12.5211C15.686 13.2754 16.7624 14.3283 17.6487 15.6011C17.0611 15.7426 16.5504 16.1043 16.2219 16.6116C16.0857 16.8274 15.9484 17.0049 15.8101 17.1443C15.5133 17.436 15.1138 17.5995 14.6976 17.5995C14.2814 17.5995 13.8818 17.436 13.585 17.1443C13.4547 17.0085 13.3369 16.8612 13.233 16.7043C12.6249 15.7991 11.5736 15.6027 10.9513 15.6027C10.329 15.6027 9.27771 15.7991 8.66957 16.7043C8.56565 16.8612 8.44784 17.0085 8.31757 17.1443C8.02075 17.436 7.6212 17.5995 7.205 17.5995C6.7888 17.5995 6.38925 17.436 6.09243 17.1443C5.93596 16.982 5.7974 16.8034 5.67914 16.6116C5.09771 15.6891 4.05586 15.4959 3.46029 15.4959C3.13657 15.4959 2.69029 15.5524 2.25186 15.7473C3.157 14.4069 4.26957 13.3053 5.53143 12.5211C6.76591 11.7393 8.18137 11.2895 9.64071 11.2153C9.75857 9.67843 10.0634 8.18871 10.5993 6.89071C10.8461 6.28469 11.1597 5.70807 11.5343 5.17157ZM4.54143 18.0557C4.45024 17.8426 4.29825 17.6611 4.10447 17.534C3.91068 17.4068 3.6837 17.3396 3.45192 17.3408C3.22015 17.342 2.99386 17.4115 2.80137 17.5406C2.60888 17.6697 2.45874 17.8527 2.36971 18.0667C2.2354 18.3875 2.03176 18.6747 1.77338 18.9075C1.51501 19.1403 1.20831 19.3131 0.875286 19.4134C0.726911 19.4575 0.588667 19.5303 0.468447 19.6278C0.348227 19.7253 0.248385 19.8455 0.174622 19.9816C0.100859 20.1177 0.0546199 20.2669 0.038544 20.4209C0.0224681 20.5748 0.0368705 20.7304 0.080929 20.8788C0.124987 21.0272 0.197839 21.1654 0.295325 21.2856C0.39281 21.4058 0.51302 21.5057 0.649091 21.5794C0.785162 21.6532 0.934429 21.6994 1.08837 21.7155C1.24231 21.7316 1.39791 21.7172 1.54629 21.6731C2.26228 21.4595 2.91724 21.0787 3.45714 20.5621C3.72952 20.8282 4.03124 21.0608 4.36229 21.2599C6.00757 22.2467 8.40243 22.2467 10.0477 21.2599C10.376 21.0652 10.6794 20.8315 10.9513 20.5637C11.2237 20.8288 11.5249 21.0608 11.8549 21.2599C13.5001 22.2467 15.895 22.2467 17.5403 21.2599C17.8713 21.0608 18.173 20.8282 18.4454 20.5621L18.5507 20.6611C19.0693 21.1279 19.6869 21.4736 20.3563 21.6716C20.652 21.7484 20.9659 21.7074 21.232 21.5572C21.498 21.407 21.6954 21.1594 21.7824 20.8666C21.8694 20.5737 21.8393 20.2585 21.6984 19.9874C21.5576 19.7163 21.3169 19.5105 21.0273 19.4134C20.6943 19.3131 20.3876 19.1403 20.1292 18.9075C19.8708 18.6747 19.6672 18.3875 19.5329 18.0667C19.4438 17.8527 19.2937 17.6697 19.1012 17.5406C18.9087 17.4115 18.6824 17.342 18.4506 17.3408C18.2189 17.3396 17.9919 17.4068 17.7981 17.534C17.6043 17.6611 17.4523 17.8426 17.3611 18.0557C17.149 18.5487 16.7873 18.9626 16.3271 19.239C15.4283 19.778 13.9653 19.778 13.068 19.239C12.6072 18.9635 12.2453 18.5493 12.034 18.0557C11.943 17.844 11.7919 17.6637 11.5995 17.537C11.4071 17.4103 11.1817 17.3427 10.9513 17.3427C10.7209 17.3427 10.4955 17.4103 10.3031 17.537C10.1107 17.6637 9.95959 17.844 9.86857 18.0557C9.65731 18.5493 9.2954 18.9635 8.83457 19.239C7.93571 19.778 6.47271 19.778 5.57386 19.239C5.11362 18.9632 4.75228 18.5491 4.54143 18.0557Z" fill="#7A1022"/>
</svg>
