<svg width="28" height="28" viewBox="0 0 28 28" fill="none" xmlns="http://www.w3.org/2000/svg">
<path d="M27.3333 2.00002L11.3333 3.88002V6.00002H27.3333V7.33335H11.3333V14H27.3333C27.3333 16.4134 26.5733 18.6134 25.0933 20.6C23.6133 22.5867 21.6933 24.04 19.3333 25V27.3334H8.66666V25C6.31999 24.04 4.38666 22.5734 2.90666 20.6C1.42666 18.6267 0.666656 16.4134 0.666656 14H4.66666V3.33335L27.3333 0.666687V2.00002ZM5.99999 4.50669V6.00002H7.33332V4.37335L5.99999 4.50669ZM5.99999 7.33335V14H7.33332V7.33335H5.99999ZM9.99999 14V7.33335H8.66666V14H9.99999ZM9.99999 6.00002V4.06669L8.66666 4.18669V6.00002H9.99999Z" fill="#7A1022"/>
</svg>
